<?xml version="1.0" encoding="UTF-8"?>
<svg id="Calque_1" xmlns="http://www.w3.org/2000/svg" version="1.1" viewBox="0 0 512 512">
  <!-- Generator: Adobe Illustrator 29.6.1, SVG Export Plug-In . SVG Version: 2.1.1 Build 9)  -->
  <defs>
    <style>
      .st0 {
        fill: #fff;
      }
    </style>
  </defs>
  <rect id="fond" y="0" width="512" height="512"/>
  <path id="beout" class="st0" d="M129.2,394.8v-1.6c5.6-.5,9.8-2.3,12.6-5.3s4.2-7.1,4.2-12.3-1-8.5-3-11.5-5.1-5.2-9.2-6.6c-4.1-1.5-9.3-2.1-15.5-2.1h-43.4v82.4h45.8c6.6,0,12.2-.9,16.4-2.7,4.3-1.8,7.5-4.4,9.6-7.8s3.1-7.5,3.1-12.3-1.7-10.2-5.1-14c-3.3-3.8-8.5-5.8-15.4-6h0ZM97.7,376.1h18.8c2.4,0,4,.3,5.1,1,1,.7,1.6,2.1,1.6,4.3s-.4,3.4-1.3,4.2c-.8.7-2.4,1.1-4.8,1.1h-19.3v-10.6ZM124.7,416c-1.1.7-2.8,1-5,1h-22v-12.3h22c2.4,0,4.1.3,5.1,1.1s1.6,2.4,1.6,5.2-.6,4.4-1.7,5.1ZM425.6,393.5v19.9c0,1.9.4,3.2,1.3,3.8.9.7,2.6,1,5.2,1h10v19.3c-1.6.3-3.7.7-6.4,1-2.7.3-5.5.5-8.2.5-8.4,0-14.7-1.8-18.8-5.4-4.1-3.6-6.1-9.1-6.1-16.8v-23.4h-8.2v-18.9h9l4.1-13.1h18.1v13.1h16.6v18.9h-16.6,0ZM368.2,374.6h22.8v63.2h-21.3v-9.6h-1.1c-1.1,2.4-2.7,4.3-4.7,6s-4.4,2.8-7,3.6-5.6,1.2-8.7,1.2c-5.4,0-9.7-1.1-13-3.3s-5.6-5.1-7.1-8.7c-1.5-3.7-2.2-7.7-2.2-12v-40.4h22.9v35.7c0,3.3.6,5.7,1.8,7s3.8,2,7.8,2,4.5-.2,5.9-.7,2.4-1.4,3-2.6c.6-1.3.9-3,.9-5.2v-36h0ZM301.4,359.4c-6.1-3.5-13.5-5.2-22-5.2s-16,1.7-22.1,5.2c-6.1,3.5-10.8,8.4-14,14.8-3.3,6.4-4.9,13.8-4.9,22.5s1.6,16.1,4.9,22.5,7.9,11.3,14,14.8c6.1,3.5,13.5,5.2,22.1,5.2s15.9-1.7,22-5.2c6.1-3.5,10.8-8.4,14-14.8,3.3-6.4,4.9-13.8,4.9-22.5s-1.6-16.1-4.9-22.5-7.9-11.3-14-14.8ZM294.2,408.8c-1,2.9-2.6,4.9-5,6s-5.6,1.6-9.9,1.6-7.5-.6-10-1.6c-2.4-1.1-4.1-3.1-5.1-6-1-2.9-1.5-7-1.5-12.2s.5-9.4,1.5-12.3c1-2.9,2.7-4.8,5.1-6,2.4-1.1,5.7-1.6,10-1.6s7.5.6,9.9,1.6c2.4,1.1,4,3.1,5,6s1.5,6.9,1.5,12.3-.5,9.3-1.5,12.2ZM201.7,377c-4.5-2.4-10.1-3.7-16.9-3.7s-12.8,1.3-17.6,4c-4.9,2.7-8.6,6.5-11.1,11.5s-3.8,11-3.8,18,1.2,12.5,3.7,17.3c2.4,4.8,6.1,8.5,10.9,11.1s10.5,3.8,17.2,3.8,11.6-1,16.2-2.9c4.6-1.9,8-4.5,10.5-7.8s3.7-7,3.7-11.4v-1.5h-22.6v.2c0,1.4-.5,2.4-1.6,3-1.1.7-2.9.9-5.7.9s-5.6-.3-7-.9c-1.6-.6-2.5-1.6-3-3.3-.3-1.1-.6-2.5-.7-4.2h40.5c.2-1.1.3-2.4.6-4.2s.3-3.4.3-5.1c0-5.6-1.1-10.6-3.3-14.9-2.2-4.3-5.6-7.7-10.1-10.1h0ZM183.7,391.5c2.7,0,4.7.4,6.1,1.1s2.4,1.7,2.9,2.9c.5,1,.7,2.1.7,3.3h-19.7c.2-2.4.9-4.2,2.1-5.4,1.5-1.4,4.1-2,7.8-2h0Z"/>
</svg>