<?xml version="1.0" encoding="UTF-8"?>
<svg id="Calque_1" xmlns="http://www.w3.org/2000/svg" version="1.1" viewBox="0 0 512 512">
  <!-- Generator: Adobe Illustrator 29.6.1, SVG Export Plug-In . SVG Version: 2.1.1 Build 9)  -->
  <defs>
    <style>
      .st0 {
        fill: #fff;
      }
    </style>
  </defs>
  <rect id="fond" y="0" width="512" height="512"/>
  <path id="beout" class="st0" d="M124.6,409.9v-1.7c5.8-.5,10.2-2.4,13-5.5s4.3-7.4,4.3-12.8-1-8.8-3.1-11.9-5.2-5.4-9.6-6.9c-4.2-1.5-9.6-2.2-16.1-2.2h-44.9v85.4h47.5c6.9,0,12.6-.9,17-2.8,4.5-1.9,7.8-4.6,9.9-8.1s3.2-7.8,3.2-12.8-1.8-10.6-5.2-14.6c-3.5-3.9-8.8-6-16-6.3h0ZM91.9,390.6h19.5c2.5,0,4.1.3,5.2,1,1,.7,1.6,2.2,1.6,4.5s-.4,3.6-1.4,4.3c-.8.8-2.5,1.2-5,1.2h-20v-11ZM119.9,431.8c-1.2.7-2.9,1-5.2,1h-22.8v-12.8h22.8c2.5,0,4.2.3,5.3,1.1s1.6,2.5,1.6,5.4-.6,4.6-1.8,5.2ZM431.6,408.6v20.6c0,1.9.4,3.3,1.4,4,.9.7,2.7,1,5.4,1h10.3v20c-1.6.3-3.8.7-6.6,1-2.8.3-5.7.5-8.5.5-8.7,0-15.2-1.9-19.5-5.6s-6.3-9.5-6.3-17.4v-24.2h-8.5v-19.6h9.3l4.2-13.5h18.8v13.5h17.2v19.6h-17.2,0ZM372.2,389h23.6v65.5h-22.1v-9.9h-1.1c-1.2,2.5-2.8,4.5-4.9,6.2s-4.6,2.9-7.3,3.7-5.8,1.3-9,1.3c-5.6,0-10.1-1.1-13.5-3.4s-5.8-5.2-7.4-9.1c-1.5-3.8-2.3-8-2.3-12.4v-41.9h23.7v37c0,3.5.6,5.9,1.9,7.3s4,2,8,2,4.7-.3,6.1-.8,2.5-1.4,3.1-2.7c.6-1.4.9-3.1.9-5.4v-37.3h0ZM302.9,373.2c-6.3-3.6-14-5.4-22.8-5.4s-16.6,1.8-22.9,5.4c-6.3,3.6-11.2,8.7-14.6,15.3-3.4,6.6-5.1,14.3-5.1,23.3s1.7,16.7,5.1,23.3,8.2,11.7,14.6,15.3c6.3,3.6,14,5.4,22.9,5.4s16.5-1.8,22.8-5.4,11.2-8.7,14.5-15.3c3.4-6.6,5.1-14.3,5.1-23.3s-1.7-16.7-5.1-23.3-8.2-11.7-14.5-15.3ZM295.5,424.4c-1,3-2.7,5.1-5.2,6.3s-5.8,1.7-10.2,1.7-7.8-.6-10.3-1.7c-2.5-1.2-4.2-3.2-5.2-6.3s-1.5-7.3-1.5-12.7.5-9.7,1.5-12.8c1-3,2.8-5,5.2-6.2,2.5-1.2,5.9-1.7,10.3-1.7s7.8.6,10.2,1.7c2.5,1.2,4.1,3.2,5.2,6.2s1.5,7.2,1.5,12.8-.5,9.6-1.5,12.7ZM199.7,391.5c-4.7-2.5-10.5-3.8-17.5-3.8s-13.3,1.4-18.3,4.1c-5.1,2.8-8.9,6.8-11.5,11.9s-3.9,11.4-3.9,18.6,1.3,12.9,3.8,17.9c2.5,5,6.3,8.8,11.3,11.5s10.8,4,17.8,4,12-1,16.7-3,8.3-4.7,10.8-8,3.8-7.3,3.8-11.8v-1.5h-23.4v.3c0,1.4-.5,2.5-1.6,3.1-1.1.7-3,.9-5.9.9s-5.8-.3-7.3-.9c-1.6-.6-2.6-1.7-3.1-3.4-.3-1.1-.6-2.6-.7-4.4h42c.2-1.1.3-2.5.6-4.3s.3-3.6.3-5.3c0-5.8-1.2-11-3.5-15.5-2.3-4.5-5.8-8-10.5-10.5h0ZM181,406.6c2.8,0,4.9.4,6.3,1.2s2.5,1.8,3,3c.5,1,.7,2.2.7,3.5h-20.4c.2-2.5.9-4.3,2.2-5.6,1.5-1.4,4.2-2.1,8-2.1h0Z"/>
</svg>