<?xml version="1.0" encoding="UTF-8"?>
<svg id="Calque_1" xmlns="http://www.w3.org/2000/svg" version="1.1" viewBox="0 0 512 512">
  <!-- Generator: Adobe Illustrator 29.6.1, SVG Export Plug-In . SVG Version: 2.1.1 Build 9)  -->
  <defs>
    <style>
      .st0 {
        fill: #fff;
      }

      .st1 {
        fill: #ff5917;
      }
    </style>
  </defs>
  <rect class="st1" x="-.5" width="512" height="512"/>
  <path class="st0" d="M140.5,279.1v-1.7c6.2-.6,10.7-2.4,13.7-5.8,3-3.4,4.5-7.9,4.5-13.5s-1.1-9.4-3.4-12.6c-2.3-3.4-5.6-5.6-10.1-7.3-4.5-1.5-10.1-2.4-17.1-2.4h-47.7v90.5h50.3c7.3,0,13.3-.9,18-3,4.7-2.1,8.3-4.9,10.5-8.6s3.4-8.3,3.4-13.5-1.9-11.3-5.6-15.4-9.4-6.4-16.9-6.6h.4ZM105.9,258.4h20.7c2.6,0,4.5.4,5.6,1.1s1.7,2.3,1.7,4.7-.4,3.8-1.3,4.5-2.6,1.1-5.3,1.1h-21.2v-11.6l-.2.2ZM135.6,302.2c-1.3.8-3,1.1-5.4,1.1h-24.2v-13.5h24.2c2.6,0,4.5.4,5.6,1.1,1.1.8,1.7,2.6,1.7,5.8s-.6,4.9-1.9,5.6v-.2ZM176.4,326.2h-6.8v-90.5h72.5v22.9h-47.3v10.9h45.3v22.7h-45.3v11.3h47.3v22.9h-65.5l-.2-.2ZM234.8,355.5c-6.6-3.8-14.6-5.8-24-5.8s-17.5,1.9-24,5.8c-6.8,3.8-11.8,9.2-15.2,16.2-3.6,6.9-5.3,15.2-5.3,24.6s1.7,17.7,5.3,24.6c3.6,6.9,8.6,12.4,15.2,16.2,6.8,3.8,14.6,5.8,24,5.8s17.3-1.9,24-5.8c6.6-3.8,11.6-9.2,15.2-16.2,3.6-6.9,5.3-15.2,5.3-24.6s-1.7-17.7-5.3-24.6c-3.6-6.9-8.6-12.4-15.2-16.2ZM226.9,410c-1.1,3.2-2.8,5.4-5.4,6.6s-6.2,1.9-10.7,1.9-8.3-.6-10.9-1.9c-2.6-1.1-4.5-3.4-5.4-6.6-1.1-3.2-1.5-7.7-1.5-13.5s.6-10.3,1.5-13.5c1.1-3.2,2.8-5.3,5.4-6.6,2.6-1.1,6.2-1.9,10.9-1.9s8.3.6,10.7,1.9c2.6,1.1,4.3,3.4,5.4,6.6s1.5,7.7,1.5,13.5-.6,10.3-1.5,13.5ZM315.9,351.2h25v55.6c0,7.3-1.5,13.7-4.3,19.2s-7.3,9.8-13.1,12.8-13.3,4.5-22.5,4.5-16.5-1.5-22.5-4.5c-6-3-10.3-7.3-13.1-12.8-2.8-5.4-4.3-11.8-4.3-19.2v-55.6h25v54.3c0,3.4.4,6,1.1,7.9.8,1.9,2.3,3.2,4.3,3.9,2.3.8,5.4,1.1,9.6,1.1s7.5-.4,9.6-1.1c2.3-.8,3.6-2.1,4.3-3.9.8-1.9,1.1-4.5,1.1-7.9v-54.3h0ZM424.1,373.9h-27.2v67.8h-25v-67.8h-27.2v-22.9h79.4v22.9h0ZM413.2,482.5H98.8c-36.2,0-65.9-29.5-65.9-65.9V102.3c0-36.4,29.5-65.9,65.9-65.9h314.4c36.2,0,65.9,29.5,65.9,65.9v314.4c0,36.2-29.5,65.9-65.9,65.9v-.2ZM98.8,42c-33.2,0-60.3,27-60.3,60.3v314.4c0,33.2,27,60.3,60.3,60.3h314.4c33.2,0,60.3-27,60.3-60.3V102.3c0-33.2-27-60.3-60.3-60.3,0,0-314.4,0-314.4,0Z"/>
</svg>