<?xml version="1.0" encoding="UTF-8"?>
<svg id="Calque_1" xmlns="http://www.w3.org/2000/svg" version="1.1" viewBox="0 0 249.7 252.2">
  <!-- Generator: Adobe Illustrator 29.6.1, SVG Export Plug-In . SVG Version: 2.1.1 Build 9)  -->
  <defs>
    <style>
      .st0 {
        fill: #fff;
      }
    </style>
  </defs>
  <path class="st0" d="M63.4,136.8v-.9c3.3-.3,5.7-1.3,7.3-3.1,1.6-1.8,2.4-4.2,2.4-7.2s-.6-5-1.8-6.7c-1.2-1.8-3-3-5.4-3.9-2.4-.8-5.4-1.3-9.1-1.3h-25.4v48.2h26.8c3.9,0,7.1-.5,9.6-1.6,2.5-1.1,4.4-2.6,5.6-4.6,1.2-2,1.8-4.4,1.8-7.2s-1-6-3-8.2c-2-2.2-5-3.4-9-3.5ZM45,125.8h11c1.4,0,2.4.2,3,.6.6.4.9,1.2.9,2.5s-.2,2-.7,2.4-1.4.6-2.8.6h-11.3v-6.2ZM60.8,149.1c-.7.4-1.6.6-2.9.6h-12.9v-7.2h12.9c1.4,0,2.4.2,3,.6.6.4.9,1.4.9,3.1s-.3,2.6-1,3ZM82.5,161.9h-3.6v-48.2h38.6v12.2h-25.2v5.8h24.1v12.1h-24.1v6h25.2v12.2h-34.9ZM113.6,177.5c-3.5-2-7.8-3.1-12.8-3.1s-9.3,1-12.8,3.1c-3.6,2-6.3,4.9-8.1,8.6-1.9,3.7-2.8,8.1-2.8,13.1s.9,9.4,2.8,13.1c1.9,3.7,4.6,6.6,8.1,8.6,3.6,2,7.8,3.1,12.8,3.1s9.2-1,12.8-3.1c3.5-2,6.2-4.9,8.1-8.6,1.9-3.7,2.8-8.1,2.8-13.1s-.9-9.4-2.8-13.1c-1.9-3.7-4.6-6.6-8.1-8.6ZM109.4,206.5c-.6,1.7-1.5,2.9-2.9,3.5-1.4.6-3.3,1-5.7,1s-4.4-.3-5.8-1c-1.4-.6-2.4-1.8-2.9-3.5-.6-1.7-.8-4.1-.8-7.2s.3-5.5.8-7.2c.6-1.7,1.5-2.8,2.9-3.5,1.4-.6,3.3-1,5.8-1s4.4.3,5.7,1c1.4.6,2.3,1.8,2.9,3.5.6,1.7.8,4.1.8,7.2s-.3,5.5-.8,7.2ZM156.8,175.2h13.3v29.6c0,3.9-.8,7.3-2.3,10.2-1.5,2.9-3.9,5.2-7,6.8-3.1,1.6-7.1,2.4-12,2.4s-8.8-.8-12-2.4c-3.2-1.6-5.5-3.9-7-6.8-1.5-2.9-2.3-6.3-2.3-10.2v-29.6h13.3v28.9c0,1.8.2,3.2.6,4.2.4,1,1.2,1.7,2.3,2.1,1.2.4,2.9.6,5.1.6s4-.2,5.1-.6c1.2-.4,1.9-1.1,2.3-2.1.4-1,.6-2.4.6-4.2v-28.9ZM214.4,187.3h-14.5v36.1h-13.3v-36.1h-14.5v-12.2h42.3v12.2ZM208.6,245.1H41.2c-19.3,0-35.1-15.7-35.1-35.1V42.7C6.1,23.3,21.8,7.6,41.2,7.6h167.4c19.3,0,35.1,15.7,35.1,35.1v167.4c0,19.3-15.7,35.1-35.1,35.1ZM41.2,10.6c-17.7,0-32.1,14.4-32.1,32.1v167.4c0,17.7,14.4,32.1,32.1,32.1h167.4c17.7,0,32.1-14.4,32.1-32.1V42.7c0-17.7-14.4-32.1-32.1-32.1H41.2Z"/>
</svg>